<?xml version="1.0" standalone="no"?>
<!DOCTYPE svg PUBLIC "-//W3C//DTD SVG 20010904//EN"
 "http://www.w3.org/TR/2001/REC-SVG-20010904/DTD/svg10.dtd">
<svg version="1.0" xmlns="http://www.w3.org/2000/svg"
 width="1920.000000pt" height="1080.000000pt" viewBox="0 0 1920.000000 1080.000000"
 preserveAspectRatio="xMidYMid meet">

<g transform="translate(0.000000,1080.000000) scale(0.100000,-0.100000)"
fill="#000000" stroke="none">
<path d="M8790 7783 c-14 -3 -56 -20 -95 -38 -313 -152 -709 -674 -864 -1139
-87 -262 -84 -228 -88 -1041 l-4 -720 166 165 165 165 0 330 0 329 330 331
330 330 0 -330 0 -330 165 165 165 165 0 675 c0 557 -3 687 -15 745 -33 156
-118 222 -255 198z m-128 -484 c11 -6 29 -32 41 -57 18 -41 22 -70 25 -227 l3
-180 -330 -330 -331 -330 0 135 c0 229 30 385 105 548 127 274 376 500 487
441z"/>
<path d="M11663 6858 l-303 -303 20 -95 c35 -168 23 -305 -31 -380 -51 -70
-139 -88 -246 -51 -29 10 -53 17 -53 15 0 -2 115 -278 255 -614 140 -337 255
-614 255 -618 0 -4 -43 36 -95 88 -52 52 -96 92 -99 89 -2 -2 -20 -62 -41
-134 l-36 -130 -87 -42 c-240 -116 -431 -298 -521 -494 -38 -83 -45 -119 -28
-143 22 -31 73 -13 219 76 292 178 354 208 434 208 93 0 127 -77 106 -237 -30
-224 -187 -536 -408 -813 -89 -111 -281 -302 -368 -367 -92 -68 -295 -167
-311 -151 -2 2 4 72 13 156 l16 153 101 52 c144 74 264 157 352 245 174 172
300 393 263 462 -23 42 -64 26 -282 -111 -212 -133 -296 -173 -364 -174 -69 0
-99 26 -115 104 -41 195 131 594 401 927 83 102 247 266 329 329 64 49 178
112 241 133 l34 12 -78 78 -77 79 -169 402 c-93 222 -170 405 -172 407 -2 2
-273 -266 -603 -596 l-599 -599 -4 -1773 -4 -1773 1181 1180 1181 1180 -2
1763 -3 1762 -302 -302z"/>
<path d="M8334 5679 c-77 -85 97 -437 258 -520 78 -40 118 -18 118 66 0 143
-150 389 -277 454 -53 26 -75 27 -99 0z"/>
<path d="M8350 4165 c0 -568 -4 -843 -11 -870 -13 -47 -45 -85 -71 -85 -60 0
-176 101 -285 248 -34 45 -63 79 -66 75 -2 -4 -12 -41 -22 -80 l-17 -73 32
-57 c100 -177 255 -369 369 -457 121 -93 210 -121 285 -88 54 25 90 86 106
183 6 40 10 368 10 884 l0 820 -165 165 -165 165 0 -830z"/>
</g>
</svg>
